<svg width="1440" height="1042" viewBox="0 0 1440 1042" fill="none" xmlns="http://www.w3.org/2000/svg">
<path d="M-59.4282 176.172C-137.837 259.569 -66.8006 523.831 -38.4812 592.554C25.0214 747.468 -80.8518 729.441 -83.8133 870.058C-86.7748 1010.68 200.391 1088.62 465.751 1009.76C785.764 914.661 665.637 865.38 1099.66 880.757C1533.69 896.133 1579.15 511.195 1551.7 465.768C1528.43 427.273 1579.04 260.877 1510.5 233.54C1478.2 220.658 1478.5 111.04 1367.43 134.227C1245.97 159.581 1142.36 -19.7107 1017.74 70.2807C893.11 160.272 886.692 -47.7971 708.708 11.7485C530.724 71.2942 325.817 3.61689 223.5 57.5401C27.443 160.866 37.7605 72.8011 -59.4282 176.172Z" fill="url(#paint0_linear)"/>
<defs>
<linearGradient id="paint0_linear" x1="-101.88" y1="217.598" x2="1840.42" y2="724.308" gradientUnits="userSpaceOnUse">
<stop stop-color="#0470DC"/>
<stop offset="1" stop-color="#70DDFF"/>
</linearGradient>
</defs>
</svg>
